<?xml version="1.0" encoding="iso-8859-1"?>
<!-- Uploaded to: SVG Repo, www.svgrepo.com, Generator: SVG Repo Mixer Tools -->
<!DOCTYPE svg PUBLIC "-//W3C//DTD SVG 1.1//EN" "http://www.w3.org/Graphics/SVG/1.1/DTD/svg11.dtd">
<svg fill="#000000" height="800px" width="800px" version="1.1" id="Capa_1" xmlns="http://www.w3.org/2000/svg" xmlns:xlink="http://www.w3.org/1999/xlink" 
	 viewBox="0 0 477.146 477.146" xml:space="preserve">
<path d="M360.243,461.146H234.048c7.845-7.427,13.681-17.064,16.469-28.13c11.345-45.027,30.085-133.071,28.124-216.838
	c-1.172-50.027-11.619-103.679-28.664-147.198C241.854,48.239,220.124,0,193.843,0s-48.011,48.239-56.134,68.979
	c-17.045,43.519-27.492,97.169-28.664,147.197c-1.962,83.759,16.778,171.809,28.123,216.839c6.547,25.983,29.853,44.13,56.675,44.13
	h166.399c4.418,0,8-3.582,8-8S364.661,461.146,360.243,461.146z M152.684,429.106c-11.146-44.243-29.561-130.689-27.643-212.555
	c1.129-48.231,11.177-99.892,27.565-141.737c12.271-31.329,24.6-48.158,33.236-55.034V366.4c0,4.418,3.582,8,8,8s8-3.582,8-8V19.78
	c8.636,6.876,20.965,23.705,33.236,55.034c16.389,41.845,26.437,93.507,27.565,141.737c1.917,81.875-16.496,168.315-27.644,212.555
	c-4.087,16.224-17.181,28.231-33.158,31.277V417.6c0-4.418-3.582-8-8-8s-8,3.582-8,8v42.783
	C169.866,457.337,156.772,445.33,152.684,429.106z"/>
</svg>